<?xml version="1.0" encoding="UTF-8" standalone="no"?><svg xmlns="http://www.w3.org/2000/svg" xmlns:xlink="http://www.w3.org/1999/xlink" contentScriptType="application/ecmascript" contentStyleType="text/css" height="232px" preserveAspectRatio="none" style="width:1996px;height:232px;" version="1.1" viewBox="0 0 1996 232" width="1996px" zoomAndPan="magnify"><defs><filter height="300%" id="f19cuyknzm76x0" width="300%" x="-1" y="-1"><feGaussianBlur result="blurOut" stdDeviation="2.0"/><feColorMatrix in="blurOut" result="blurOut2" type="matrix" values="0 0 0 0 0 0 0 0 0 0 0 0 0 0 0 0 0 0 .4 0"/><feOffset dx="4.0" dy="4.0" in="blurOut2" result="blurOut3"/><feBlend in="SourceGraphic" in2="blurOut3" mode="normal"/></filter></defs><g><!--MD5=[726bf5ae9c58ccf600049f91f38a1f22]
cluster t--><rect fill="#FFFFFF" filter="url(#f19cuyknzm76x0)" height="115" style="stroke: #000000; stroke-width: 1.5;" width="595" x="106.5" y="106"/><rect fill="#FFFFFF" height="10" style="stroke: #000000; stroke-width: 1.5;" width="15" x="681.5" y="111"/><rect fill="#FFFFFF" height="2" style="stroke: #000000; stroke-width: 1.5;" width="4" x="679.5" y="113"/><rect fill="#FFFFFF" height="2" style="stroke: #000000; stroke-width: 1.5;" width="4" x="679.5" y="117"/><text fill="#000000" font-family="sans-serif" font-size="14" font-weight="bold" lengthAdjust="spacingAndGlyphs" textLength="6" x="401" y="131.9951">t</text><!--MD5=[575edd5936f6f92dcb72b4d9c417533a]
cluster a1--><rect fill="#FFFFFF" filter="url(#f19cuyknzm76x0)" height="115" style="stroke: #000000; stroke-width: 1.5;" width="583" x="725.5" y="106"/><rect fill="#FFFFFF" height="10" style="stroke: #000000; stroke-width: 1.5;" width="15" x="1288.5" y="111"/><rect fill="#FFFFFF" height="2" style="stroke: #000000; stroke-width: 1.5;" width="4" x="1286.5" y="113"/><rect fill="#FFFFFF" height="2" style="stroke: #000000; stroke-width: 1.5;" width="4" x="1286.5" y="117"/><text fill="#000000" font-family="sans-serif" font-size="14" font-weight="bold" lengthAdjust="spacingAndGlyphs" textLength="19" x="1007.5" y="131.9951">a1</text><!--MD5=[6263a3a756bfed72f50c9e30d30aff15]
cluster a2--><rect fill="#FFFFFF" filter="url(#f19cuyknzm76x0)" height="115" style="stroke: #000000; stroke-width: 1.5;" width="535" x="1332.5" y="106"/><rect fill="#FFFFFF" height="10" style="stroke: #000000; stroke-width: 1.5;" width="15" x="1847.5" y="111"/><rect fill="#FFFFFF" height="2" style="stroke: #000000; stroke-width: 1.5;" width="4" x="1845.5" y="113"/><rect fill="#FFFFFF" height="2" style="stroke: #000000; stroke-width: 1.5;" width="4" x="1845.5" y="117"/><text fill="#000000" font-family="sans-serif" font-size="14" font-weight="bold" lengthAdjust="spacingAndGlyphs" textLength="19" x="1590.5" y="131.9951">a2</text><!--MD5=[d779bb52c8108c88f6ab3b6398c417ef]
entity ttfe--><rect fill="#FEFECE" filter="url(#f19cuyknzm76x0)" height="36.2969" style="stroke: #A80036; stroke-width: 1.5;" width="130" x="122.5" y="164.5"/><rect fill="#FEFECE" height="5" style="stroke: #A80036; stroke-width: 1.5;" width="10" x="117.5" y="169.5"/><rect fill="#FEFECE" height="5" style="stroke: #A80036; stroke-width: 1.5;" width="10" x="117.5" y="190.7969"/><text fill="#000000" font-family="sans-serif" font-size="14" lengthAdjust="spacingAndGlyphs" textLength="110" x="132.5" y="187.4951">Task Tracker FE</text><!--MD5=[b4a82ef0e67a03c4072f6c2be9006ed8]
entity tasks--><rect fill="#FEFECE" filter="url(#f19cuyknzm76x0)" height="36.2969" style="stroke: #A80036; stroke-width: 1.5;" width="109" x="443" y="164.5"/><rect fill="#FEFECE" height="5" style="stroke: #A80036; stroke-width: 1.5;" width="10" x="438" y="169.5"/><rect fill="#FEFECE" height="5" style="stroke: #A80036; stroke-width: 1.5;" width="10" x="438" y="190.7969"/><text fill="#000000" font-family="sans-serif" font-size="14" lengthAdjust="spacingAndGlyphs" textLength="89" x="453" y="187.4951">Task Tracker</text><!--MD5=[6af0b31fc919bde86f08dce833523a94]
entity taskdb--><path d="M618,170 C618,160 651.5,160 651.5,160 C651.5,160 685,160 685,170 L685,195.2969 C685,205.2969 651.5,205.2969 651.5,205.2969 C651.5,205.2969 618,205.2969 618,195.2969 L618,170 " fill="#FEFECE" filter="url(#f19cuyknzm76x0)" style="stroke: #000000; stroke-width: 1.5;"/><path d="M618,170 C618,180 651.5,180 651.5,180 C651.5,180 685,180 685,170 " fill="none" style="stroke: #000000; stroke-width: 1.5;"/><text fill="#000000" font-family="sans-serif" font-size="14" lengthAdjust="spacingAndGlyphs" textLength="47" x="628" y="196.9951">taskdb</text><!--MD5=[b404ab86badb4c2960dac7adbd14ff53]
entity acfe--><rect fill="#FEFECE" filter="url(#f19cuyknzm76x0)" height="36.2969" style="stroke: #A80036; stroke-width: 1.5;" width="119" x="742" y="164.5"/><rect fill="#FEFECE" height="5" style="stroke: #A80036; stroke-width: 1.5;" width="10" x="737" y="169.5"/><rect fill="#FEFECE" height="5" style="stroke: #A80036; stroke-width: 1.5;" width="10" x="737" y="190.7969"/><text fill="#000000" font-family="sans-serif" font-size="14" lengthAdjust="spacingAndGlyphs" textLength="99" x="752" y="187.4951">Accounting FE</text><!--MD5=[c8bd106169e92d1cec7d5e24ed4a2f44]
entity acc--><rect fill="#FEFECE" filter="url(#f19cuyknzm76x0)" height="36.2969" style="stroke: #A80036; stroke-width: 1.5;" width="98" x="1034.5" y="164.5"/><rect fill="#FEFECE" height="5" style="stroke: #A80036; stroke-width: 1.5;" width="10" x="1029.5" y="169.5"/><rect fill="#FEFECE" height="5" style="stroke: #A80036; stroke-width: 1.5;" width="10" x="1029.5" y="190.7969"/><text fill="#000000" font-family="sans-serif" font-size="14" lengthAdjust="spacingAndGlyphs" textLength="78" x="1044.5" y="187.4951">Accounting</text><!--MD5=[1ab76bf2f3121537cb9f2d2dd008f8c9]
entity accountdb--><path d="M1198.5,170 C1198.5,160 1245.5,160 1245.5,160 C1245.5,160 1292.5,160 1292.5,170 L1292.5,195.2969 C1292.5,205.2969 1245.5,205.2969 1245.5,205.2969 C1245.5,205.2969 1198.5,205.2969 1198.5,195.2969 L1198.5,170 " fill="#FEFECE" filter="url(#f19cuyknzm76x0)" style="stroke: #000000; stroke-width: 1.5;"/><path d="M1198.5,170 C1198.5,180 1245.5,180 1245.5,180 C1245.5,180 1292.5,180 1292.5,170 " fill="none" style="stroke: #000000; stroke-width: 1.5;"/><text fill="#000000" font-family="sans-serif" font-size="14" lengthAdjust="spacingAndGlyphs" textLength="74" x="1208.5" y="196.9951">accountdb</text><!--MD5=[ff2a26c3da4457cc08e5e85db0ca16e2]
entity anfe--><rect fill="#FEFECE" filter="url(#f19cuyknzm76x0)" height="36.2969" style="stroke: #A80036; stroke-width: 1.5;" width="101" x="1349" y="164.5"/><rect fill="#FEFECE" height="5" style="stroke: #A80036; stroke-width: 1.5;" width="10" x="1344" y="169.5"/><rect fill="#FEFECE" height="5" style="stroke: #A80036; stroke-width: 1.5;" width="10" x="1344" y="190.7969"/><text fill="#000000" font-family="sans-serif" font-size="14" lengthAdjust="spacingAndGlyphs" textLength="81" x="1359" y="187.4951">Analytics FE</text><!--MD5=[06c0a702655405aff2c5dda3bc49f372]
entity an--><rect fill="#FEFECE" filter="url(#f19cuyknzm76x0)" height="36.2969" style="stroke: #A80036; stroke-width: 1.5;" width="80" x="1609.5" y="164.5"/><rect fill="#FEFECE" height="5" style="stroke: #A80036; stroke-width: 1.5;" width="10" x="1604.5" y="169.5"/><rect fill="#FEFECE" height="5" style="stroke: #A80036; stroke-width: 1.5;" width="10" x="1604.5" y="190.7969"/><text fill="#000000" font-family="sans-serif" font-size="14" lengthAdjust="spacingAndGlyphs" textLength="60" x="1619.5" y="187.4951">Analytics</text><!--MD5=[d3d74a025b24836c158f20dea6b02dc1]
entity analyticsdb--><path d="M1755,170 C1755,160 1803.5,160 1803.5,160 C1803.5,160 1852,160 1852,170 L1852,195.2969 C1852,205.2969 1803.5,205.2969 1803.5,205.2969 C1803.5,205.2969 1755,205.2969 1755,195.2969 L1755,170 " fill="#FEFECE" filter="url(#f19cuyknzm76x0)" style="stroke: #000000; stroke-width: 1.5;"/><path d="M1755,170 C1755,180 1803.5,180 1803.5,180 C1803.5,180 1852,180 1852,170 " fill="none" style="stroke: #000000; stroke-width: 1.5;"/><text fill="#000000" font-family="sans-serif" font-size="14" lengthAdjust="spacingAndGlyphs" textLength="77" x="1765" y="196.9951">analyticsdb</text><!--MD5=[a1bcc5dfa9a2ffc8f4c80b0858fe135c]
entity cal--><rect fill="#FEFECE" filter="url(#f19cuyknzm76x0)" height="36.2969" style="stroke: #A80036; stroke-width: 1.5;" width="81" x="6" y="164.5"/><rect fill="#FEFECE" height="5" style="stroke: #A80036; stroke-width: 1.5;" width="10" x="1" y="169.5"/><rect fill="#FEFECE" height="5" style="stroke: #A80036; stroke-width: 1.5;" width="10" x="1" y="190.7969"/><text fill="#000000" font-family="sans-serif" font-size="14" lengthAdjust="spacingAndGlyphs" textLength="61" x="16" y="187.4951">Calendar</text><!--MD5=[e29493a8775effcafa538aa0485107d1]
entity auth--><rect fill="#FEFECE" filter="url(#f19cuyknzm76x0)" height="36.2969" style="stroke: #A80036; stroke-width: 1.5;" width="98" x="1887.5" y="164.5"/><rect fill="#FEFECE" height="5" style="stroke: #A80036; stroke-width: 1.5;" width="10" x="1882.5" y="169.5"/><rect fill="#FEFECE" height="5" style="stroke: #A80036; stroke-width: 1.5;" width="10" x="1882.5" y="190.7969"/><text fill="#000000" font-family="sans-serif" font-size="14" lengthAdjust="spacingAndGlyphs" textLength="78" x="1897.5" y="187.4951">UberPopug</text><!--MD5=[9b6c9b16ee2a342a17bbeb0cc6995d17]
link cal to tasks--><path d="M53.42,164.42 C62.29,144.1 79.77,112.12 106.5,98 C147.67,76.25 270.59,85.73 316,96 C371.55,108.56 430.03,140.25 465.13,161.58 " fill="none" id="cal-&gt;tasks" style="stroke: #A80036; stroke-width: 1.0;"/><polygon fill="#A80036" points="469.71,164.39,464.1339,156.2717,465.4493,161.7735,459.9475,163.0889,469.71,164.39" style="stroke: #A80036; stroke-width: 1.0;"/><text fill="#000000" font-family="sans-serif" font-size="13" lengthAdjust="spacingAndGlyphs" textLength="101" x="214" y="86.0669">async start_day</text><!--MD5=[af21c0395541c441cf7655913e5ac104]
link ttfe to tasks--><path d="M252.86,182.5 C307.5,182.5 384.78,182.5 437.78,182.5 " fill="none" id="ttfe-&gt;tasks" style="stroke: #A80036; stroke-width: 1.0;"/><polygon fill="#A80036" points="442.83,182.5,433.83,178.5,437.83,182.5,433.83,186.5,442.83,182.5" style="stroke: #A80036; stroke-width: 1.0;"/><text fill="#000000" font-family="sans-serif" font-size="13" lengthAdjust="spacingAndGlyphs" textLength="154" x="270.75" y="175.5669">sync task_management</text><!--MD5=[423b333213a9314c60e978dc1a7e12c2]
link tasks to taskdb--><path d="M552.23,182.5 C572.14,182.5 594.23,182.5 612.51,182.5 " fill="none" id="tasks-&gt;taskdb" style="stroke: #A80036; stroke-width: 1.0;"/><polygon fill="#A80036" points="617.56,182.5,608.56,178.5,612.56,182.5,608.56,186.5,617.56,182.5" style="stroke: #A80036; stroke-width: 1.0;"/><text fill="#000000" font-family="sans-serif" font-size="13" lengthAdjust="spacingAndGlyphs" textLength="29" x="570.5" y="175.5669">sync</text><!--MD5=[e0607930d0a9afbbfeb8f6efdaf28a37]
link tasks to acc--><path d="M512.37,164.46 C530.63,143.86 563.74,111.3 600.5,98 C673.43,71.62 875.11,74.07 949.5,96 C992.36,108.63 1034.43,139.71 1059.68,160.96 " fill="none" id="tasks-&gt;acc" style="stroke: #A80036; stroke-width: 1.0;"/><polygon fill="#A80036" points="1063.58,164.28,1059.3306,155.3951,1059.7767,161.0343,1054.1374,161.4804,1063.58,164.28" style="stroke: #A80036; stroke-width: 1.0;"/><text fill="#000000" font-family="sans-serif" font-size="13" lengthAdjust="spacingAndGlyphs" textLength="68" x="880.5" y="86.0669">async task</text><!--MD5=[6231aaa5df7043374715b7f8f63d79cb]
link tasks to an--><path d="M512.36,164.44 C530.61,143.81 563.71,111.22 600.5,98 C679.55,69.59 1272.5,95.24 1356.5,96 C1405.84,96.44 1419.42,86.93 1467.5,98 C1522.41,110.64 1580.58,141.04 1615.98,161.71 " fill="none" id="tasks-&gt;an" style="stroke: #A80036; stroke-width: 1.0;"/><polygon fill="#A80036" points="1620.61,164.43,1614.8679,156.4282,1616.2963,161.9018,1610.8227,163.3301,1620.61,164.43" style="stroke: #A80036; stroke-width: 1.0;"/><text fill="#000000" font-family="sans-serif" font-size="13" lengthAdjust="spacingAndGlyphs" textLength="68" x="1287.5" y="86.0669">async task</text><!--MD5=[b1361b8eed797bd048b63cf916a13834]
link tasks to auth--><path d="M512.36,164.43 C530.61,143.8 563.71,111.21 600.5,98 C693.62,64.57 1392.06,95.74 1491,96 C1574.67,96.22 1792,61.93 1867.5,98 C1894.19,110.75 1914,139.4 1925.38,159.8 " fill="none" id="tasks-&gt;auth" style="stroke: #A80036; stroke-width: 1.0;"/><polygon fill="#A80036" points="1927.82,164.27,1927.0219,154.4535,1925.4257,159.8805,1919.9987,158.2843,1927.82,164.27" style="stroke: #A80036; stroke-width: 1.0;"/><text fill="#000000" font-family="sans-serif" font-size="13" lengthAdjust="spacingAndGlyphs" textLength="29" x="1461" y="86.0669">sync</text><!--MD5=[8925f71b4f5ca973e668181c6d638e3e]
link acc to an--><path d="M1097.76,164.14 C1115.02,143.56 1146.19,111.33 1181.5,98 C1240.96,75.55 1406.24,81.06 1467.5,98 C1521,112.79 1578.41,141.91 1614.14,161.79 " fill="none" id="acc-&gt;an" style="stroke: #A80036; stroke-width: 1.0;"/><polygon fill="#A80036" points="1618.82,164.41,1612.9258,156.5196,1614.4587,161.9648,1609.0135,163.4977,1618.82,164.41" style="stroke: #A80036; stroke-width: 1.0;"/><text fill="#000000" font-family="sans-serif" font-size="13" lengthAdjust="spacingAndGlyphs" textLength="72" x="1375.5" y="86.0669">async price</text><!--MD5=[426891a1cfb5923fe4a9b653a04ba093]
link acfe to acc--><path d="M861.3,182.5 C910.91,182.5 980.86,182.5 1028.95,182.5 " fill="none" id="acfe-&gt;acc" style="stroke: #A80036; stroke-width: 1.0;"/><polygon fill="#A80036" points="1034.12,182.5,1025.12,178.5,1029.12,182.5,1025.12,186.5,1034.12,182.5" style="stroke: #A80036; stroke-width: 1.0;"/><text fill="#000000" font-family="sans-serif" font-size="13" lengthAdjust="spacingAndGlyphs" textLength="137" x="879.25" y="175.5669">sync view_accounting</text><!--MD5=[58c3cb7bd6c7a22b5f89a652b83823af]
link acc to accountdb--><path d="M1132.54,182.5 C1151.61,182.5 1173.49,182.5 1192.89,182.5 " fill="none" id="acc-&gt;accountdb" style="stroke: #A80036; stroke-width: 1.0;"/><polygon fill="#A80036" points="1198.29,182.5,1189.29,178.5,1193.29,182.5,1189.29,186.5,1198.29,182.5" style="stroke: #A80036; stroke-width: 1.0;"/><text fill="#000000" font-family="sans-serif" font-size="13" lengthAdjust="spacingAndGlyphs" textLength="29" x="1151" y="175.5669">sync</text><!--MD5=[25c840a8e71a1eb0c41cca55c2f89e37]
link acc to auth--><path d="M1097.45,164.48 C1114.63,143.89 1145.95,111.34 1181.5,98 C1252.86,71.23 1798.73,65.12 1867.5,98 C1894.19,110.76 1913.99,139.4 1925.38,159.8 " fill="none" id="acc-&gt;auth" style="stroke: #A80036; stroke-width: 1.0;"/><polygon fill="#A80036" points="1927.82,164.28,1927.0465,154.4616,1925.4367,159.8845,1920.0138,158.2748,1927.82,164.28" style="stroke: #A80036; stroke-width: 1.0;"/><text fill="#000000" font-family="sans-serif" font-size="13" lengthAdjust="spacingAndGlyphs" textLength="29" x="1500" y="86.0669">sync</text><!--MD5=[390dc2c6b1230a528d901f00638bbaaf]
link an to analyticsdb--><path d="M1689.56,182.5 C1707.88,182.5 1729.87,182.5 1749.62,182.5 " fill="none" id="an-&gt;analyticsdb" style="stroke: #A80036; stroke-width: 1.0;"/><polygon fill="#A80036" points="1754.85,182.5,1745.85,178.5,1749.85,182.5,1745.85,186.5,1754.85,182.5" style="stroke: #A80036; stroke-width: 1.0;"/><text fill="#000000" font-family="sans-serif" font-size="13" lengthAdjust="spacingAndGlyphs" textLength="29" x="1707.75" y="175.5669">sync</text><!--MD5=[afa6fad194c99f36ee57e2fb9b5660a6]
link anfe to an--><path d="M1450.09,182.5 C1495.2,182.5 1560.63,182.5 1604.09,182.5 " fill="none" id="anfe-&gt;an" style="stroke: #A80036; stroke-width: 1.0;"/><polygon fill="#A80036" points="1609.28,182.5,1600.28,178.5,1604.28,182.5,1600.28,186.5,1609.28,182.5" style="stroke: #A80036; stroke-width: 1.0;"/><text fill="#000000" font-family="sans-serif" font-size="13" lengthAdjust="spacingAndGlyphs" textLength="123" x="1468.25" y="175.5669">sync view_analytics</text><!--MD5=[881791d02cffc459f5689bbf95c2d67c]
link an to auth--><path d="M1661.98,164.45 C1677.17,144.16 1704.88,112.21 1737.5,98 C1751.99,91.69 1757.2,96.44 1773,96 C1814.99,94.82 1829.83,79.4 1867.5,98 C1894.02,111.1 1913.87,139.67 1925.31,159.95 " fill="none" id="an-&gt;auth" style="stroke: #A80036; stroke-width: 1.0;"/><polygon fill="#A80036" points="1927.76,164.4,1926.9239,154.5867,1925.3488,160.0198,1919.9156,158.4447,1927.76,164.4" style="stroke: #A80036; stroke-width: 1.0;"/><text fill="#000000" font-family="sans-serif" font-size="13" lengthAdjust="spacingAndGlyphs" textLength="29" x="1774" y="86.0669">sync</text><!--MD5=[d2ec288e1d8950b3621a50ff2fb2f99b]
@startuml

[Calendar] as cal
[UberPopug] as auth

component t {
[Task Tracker FE] as ttfe
[Task Tracker] as tasks
database taskdb
}

component a1 {
[Accounting FE] as acfe
[Accounting] as acc
database accountdb
}

component a2 {
[Analytics FE] as anfe
[Analytics] as an
database analyticsdb
}

cal -> tasks : async start_day

ttfe -> tasks : sync task_management
tasks -> taskdb : sync
tasks -> acc : async task
tasks -> an : async task
tasks -> auth: sync

acc -> an : async price
acfe -> acc : sync view_accounting
acc -> accountdb : sync
acc -> auth: sync

an -> analyticsdb : sync
anfe -> an : sync view_analytics
an -> auth : sync

@enduml

PlantUML version 1.2020.02(Sun Mar 01 13:22:07 MSK 2020)
(GPL source distribution)
Java Runtime: OpenJDK Runtime Environment
JVM: OpenJDK 64-Bit Server VM
Java Version: 11.0.14.1+1-post-Debian-1
Operating System: Linux
Default Encoding: UTF-8
Language: en
Country: US
--></g></svg>