<?xml version="1.0" encoding="UTF-8" standalone="no"?>
<!DOCTYPE svg PUBLIC "-//W3C//DTD SVG 1.1//EN"
 "http://www.w3.org/Graphics/SVG/1.1/DTD/svg11.dtd">
<!-- Generated by graphviz version 2.43.0 (0)
 -->
<!-- Title: %3 Pages: 1 -->
<svg width="390pt" height="188pt"
 viewBox="0.00 0.00 389.84 188.00" xmlns="http://www.w3.org/2000/svg" xmlns:xlink="http://www.w3.org/1999/xlink">
<g id="graph0" class="graph" transform="scale(1 1) rotate(0) translate(4 184)">
<title>%3</title>
<polygon fill="white" stroke="transparent" points="-4,4 -4,-184 385.84,-184 385.84,4 -4,4"/>
<!-- popug -->
<g id="node1" class="node">
<title>popug</title>
<ellipse fill="none" stroke="black" cx="44.65" cy="-162" rx="39.79" ry="18"/>
<text text-anchor="middle" x="44.65" y="-158.3" font-family="Times,serif" font-size="14.00">popug</text>
</g>
<!-- role -->
<g id="node2" class="node">
<title>role</title>
<ellipse fill="none" stroke="black" cx="44.65" cy="-90" rx="28.7" ry="18"/>
<text text-anchor="middle" x="44.65" y="-86.3" font-family="Times,serif" font-size="14.00">role</text>
</g>
<!-- popug&#45;&gt;role -->
<g id="edge1" class="edge">
<title>popug&#45;&gt;role</title>
<path fill="none" stroke="black" d="M44.65,-143.7C44.65,-135.98 44.65,-126.71 44.65,-118.11"/>
<polygon fill="black" stroke="black" points="48.15,-118.1 44.65,-108.1 41.15,-118.1 48.15,-118.1"/>
</g>
<!-- task -->
<g id="node3" class="node">
<title>task</title>
<ellipse fill="none" stroke="black" cx="128.65" cy="-90" rx="30.59" ry="18"/>
<text text-anchor="middle" x="128.65" y="-86.3" font-family="Times,serif" font-size="14.00">task</text>
</g>
<!-- popug&#45;&gt;task -->
<g id="edge2" class="edge">
<title>popug&#45;&gt;task</title>
<path fill="none" stroke="black" d="M62.87,-145.81C74.86,-135.82 90.7,-122.62 103.83,-111.68"/>
<polygon fill="black" stroke="black" points="106.16,-114.3 111.6,-105.21 101.68,-108.92 106.16,-114.3"/>
</g>
<!-- status -->
<g id="node4" class="node">
<title>status</title>
<ellipse fill="none" stroke="black" cx="39.65" cy="-18" rx="39.79" ry="18"/>
<text text-anchor="middle" x="39.65" y="-14.3" font-family="Times,serif" font-size="14.00">status</text>
</g>
<!-- task&#45;&gt;status -->
<g id="edge3" class="edge">
<title>task&#45;&gt;status</title>
<path fill="none" stroke="black" d="M111.06,-75.17C98.44,-65.24 81.2,-51.68 66.82,-40.37"/>
<polygon fill="black" stroke="black" points="68.76,-37.44 58.73,-34.01 64.43,-42.95 68.76,-37.44"/>
</g>
<!-- price -->
<g id="node5" class="node">
<title>price</title>
<ellipse fill="none" stroke="black" cx="131.65" cy="-18" rx="34.39" ry="18"/>
<text text-anchor="middle" x="131.65" y="-14.3" font-family="Times,serif" font-size="14.00">price</text>
</g>
<!-- task&#45;&gt;price -->
<g id="edge4" class="edge">
<title>task&#45;&gt;price</title>
<path fill="none" stroke="black" d="M129.39,-71.7C129.72,-63.98 130.12,-54.71 130.48,-46.11"/>
<polygon fill="black" stroke="black" points="133.98,-46.25 130.91,-36.1 126.99,-45.95 133.98,-46.25"/>
</g>
<!-- date -->
<g id="node7" class="node">
<title>date</title>
<ellipse fill="none" stroke="black" cx="220.65" cy="-18" rx="31.4" ry="18"/>
<text text-anchor="middle" x="220.65" y="-14.3" font-family="Times,serif" font-size="14.00">date</text>
</g>
<!-- task&#45;&gt;date -->
<g id="edge7" class="edge">
<title>task&#45;&gt;date</title>
<path fill="none" stroke="black" d="M146.82,-75.17C160.43,-64.82 179.24,-50.5 194.47,-38.91"/>
<polygon fill="black" stroke="black" points="196.67,-41.64 202.51,-32.8 192.43,-36.07 196.67,-41.64"/>
</g>
<!-- account -->
<g id="node6" class="node">
<title>account</title>
<ellipse fill="none" stroke="black" cx="223.65" cy="-90" rx="46.59" ry="18"/>
<text text-anchor="middle" x="223.65" y="-86.3" font-family="Times,serif" font-size="14.00">account</text>
</g>
<!-- account&#45;&gt;date -->
<g id="edge5" class="edge">
<title>account&#45;&gt;date</title>
<path fill="none" stroke="black" d="M222.9,-71.7C222.57,-63.98 222.18,-54.71 221.81,-46.11"/>
<polygon fill="black" stroke="black" points="225.3,-45.95 221.38,-36.1 218.31,-46.25 225.3,-45.95"/>
</g>
<!-- audit -->
<g id="node8" class="node">
<title>audit</title>
<ellipse fill="none" stroke="black" cx="136.65" cy="-162" rx="34.39" ry="18"/>
<text text-anchor="middle" x="136.65" y="-158.3" font-family="Times,serif" font-size="14.00">audit</text>
</g>
<!-- audit&#45;&gt;task -->
<g id="edge6" class="edge">
<title>audit&#45;&gt;task</title>
<path fill="none" stroke="black" d="M134.67,-143.7C133.79,-135.98 132.73,-126.71 131.75,-118.11"/>
<polygon fill="black" stroke="black" points="135.21,-117.64 130.6,-108.1 128.26,-118.44 135.21,-117.64"/>
</g>
<!-- corporate_account -->
<g id="node9" class="node">
<title>corporate_account</title>
<ellipse fill="none" stroke="black" cx="285.65" cy="-162" rx="96.38" ry="18"/>
<text text-anchor="middle" x="285.65" y="-158.3" font-family="Times,serif" font-size="14.00">corporate_account</text>
</g>
</g>
</svg>
