<?xml version="1.0" encoding="UTF-8" standalone="no"?>
<!DOCTYPE svg PUBLIC "-//W3C//DTD SVG 1.1//EN"
 "http://www.w3.org/Graphics/SVG/1.1/DTD/svg11.dtd">
<!-- Generated by graphviz version 2.43.0 (0)
 -->
<!-- Title: %3 Pages: 1 -->
<svg width="1094pt" height="559pt"
 viewBox="0.00 0.00 1093.76 559.00" xmlns="http://www.w3.org/2000/svg" xmlns:xlink="http://www.w3.org/1999/xlink">
<g id="graph0" class="graph" transform="scale(1 1) rotate(0) translate(4 555)">
<title>%3</title>
<polygon fill="white" stroke="transparent" points="-4,4 -4,-555 1089.76,-555 1089.76,4 -4,4"/>
<g id="clust1" class="cluster">
<title>cluster_0</title>
<polygon fill="none" stroke="black" points="16.76,-235 16.76,-310 94.76,-310 94.76,-235 16.76,-235"/>
<text text-anchor="middle" x="55.76" y="-294.8" font-family="Times,serif" font-size="14.00">calendar</text>
</g>
<g id="clust2" class="cluster">
<title>cluster_1</title>
<polygon fill="none" stroke="black" points="417.76,-393 417.76,-543 513.76,-543 513.76,-393 417.76,-393"/>
<text text-anchor="middle" x="465.76" y="-527.8" font-family="Times,serif" font-size="14.00">auth</text>
</g>
<g id="clust3" class="cluster">
<title>cluster_2</title>
<polygon fill="none" stroke="black" points="444.76,-152 444.76,-385 597.76,-385 597.76,-152 444.76,-152"/>
<text text-anchor="middle" x="521.26" y="-369.8" font-family="Times,serif" font-size="14.00">task tracker</text>
</g>
<g id="clust4" class="cluster">
<title>cluster_3</title>
<polygon fill="none" stroke="black" points="102.76,-80 102.76,-468 406.76,-468 406.76,-80 102.76,-80"/>
<text text-anchor="middle" x="254.76" y="-452.8" font-family="Times,serif" font-size="14.00">accounting</text>
</g>
<g id="clust5" class="cluster">
<title>cluster_4</title>
<polygon fill="none" stroke="black" points="605.76,-8 605.76,-227 1077.76,-227 1077.76,-8 605.76,-8"/>
<text text-anchor="middle" x="841.76" y="-211.8" font-family="Times,serif" font-size="14.00">analytics</text>
</g>
<!-- cal_date -->
<g id="node1" class="node">
<title>cal_date</title>
<ellipse fill="none" stroke="black" cx="55.76" cy="-261" rx="31.4" ry="18"/>
<text text-anchor="middle" x="55.76" y="-257.3" font-family="Times,serif" font-size="14.00">date</text>
</g>
<!-- accounting_date -->
<g id="node10" class="node">
<title>accounting_date</title>
<ellipse fill="none" stroke="black" cx="207.76" cy="-178" rx="31.4" ry="18"/>
<text text-anchor="middle" x="207.76" y="-174.3" font-family="Times,serif" font-size="14.00">date</text>
</g>
<!-- cal_date&#45;&gt;accounting_date -->
<g id="edge20" class="edge">
<title>cal_date&#45;&gt;accounting_date</title>
<path fill="none" stroke="black" stroke-dasharray="5,2" d="M76.63,-247.57C83.62,-243.49 91.49,-238.98 98.76,-235 124.29,-221.04 153.65,-206.01 175.46,-195.04"/>
<polygon fill="black" stroke="black" points="177.24,-198.06 184.61,-190.45 174.1,-191.81 177.24,-198.06"/>
</g>
<!-- analytics_date -->
<g id="node19" class="node">
<title>analytics_date</title>
<ellipse fill="none" stroke="black" cx="751.76" cy="-34" rx="31.4" ry="18"/>
<text text-anchor="middle" x="751.76" y="-30.3" font-family="Times,serif" font-size="14.00">date</text>
</g>
<!-- cal_date&#45;&gt;analytics_date -->
<g id="edge21" class="edge">
<title>cal_date&#45;&gt;analytics_date</title>
<path fill="none" stroke="black" stroke-dasharray="5,2" d="M53.91,-242.8C51.04,-206.3 50.21,-121.11 98.76,-80 145.36,-40.55 573.88,-35.62 710.28,-35.06"/>
<polygon fill="black" stroke="black" points="710.34,-38.56 720.33,-35.02 710.32,-31.56 710.34,-38.56"/>
</g>
<!-- auth_popug -->
<g id="node2" class="node">
<title>auth_popug</title>
<ellipse fill="none" stroke="black" cx="465.76" cy="-494" rx="39.79" ry="18"/>
<text text-anchor="middle" x="465.76" y="-490.3" font-family="Times,serif" font-size="14.00">popug</text>
</g>
<!-- auth_role -->
<g id="node3" class="node">
<title>auth_role</title>
<ellipse fill="none" stroke="black" cx="457.76" cy="-419" rx="28.7" ry="18"/>
<text text-anchor="middle" x="457.76" y="-415.3" font-family="Times,serif" font-size="14.00">role</text>
</g>
<!-- auth_popug&#45;&gt;auth_role -->
<g id="edge1" class="edge">
<title>auth_popug&#45;&gt;auth_role</title>
<path fill="none" stroke="black" d="M463.87,-475.7C462.94,-467.25 461.8,-456.87 460.76,-447.37"/>
<polygon fill="black" stroke="black" points="464.21,-446.73 459.64,-437.18 457.25,-447.5 464.21,-446.73"/>
</g>
<!-- task_popug -->
<g id="node5" class="node">
<title>task_popug</title>
<ellipse fill="none" stroke="black" cx="530.76" cy="-336" rx="39.79" ry="18"/>
<text text-anchor="middle" x="530.76" y="-332.3" font-family="Times,serif" font-size="14.00">popug</text>
</g>
<!-- auth_popug&#45;&gt;task_popug -->
<g id="edge22" class="edge">
<title>auth_popug&#45;&gt;task_popug</title>
<path fill="none" stroke="black" stroke-dasharray="5,2" d="M486.52,-478.64C490,-475.47 493.28,-471.88 495.76,-468 516.24,-435.95 524.81,-392.18 528.35,-364.25"/>
<polygon fill="black" stroke="black" points="531.86,-364.36 529.5,-354.03 524.9,-363.57 531.86,-364.36"/>
</g>
<!-- accounting_popug -->
<g id="node8" class="node">
<title>accounting_popug</title>
<ellipse fill="none" stroke="black" cx="358.76" cy="-419" rx="39.79" ry="18"/>
<text text-anchor="middle" x="358.76" y="-415.3" font-family="Times,serif" font-size="14.00">popug</text>
</g>
<!-- auth_popug&#45;&gt;accounting_popug -->
<g id="edge23" class="edge">
<title>auth_popug&#45;&gt;accounting_popug</title>
<path fill="none" stroke="black" stroke-dasharray="5,2" d="M437.75,-481.23C429.76,-477.42 421.2,-472.91 413.76,-468 402.68,-460.7 391.47,-451.34 382.08,-442.83"/>
<polygon fill="black" stroke="black" points="384.38,-440.19 374.67,-435.95 379.61,-445.32 384.38,-440.19"/>
</g>
<!-- analytics_popug -->
<g id="node17" class="node">
<title>analytics_popug</title>
<ellipse fill="none" stroke="black" cx="868.76" cy="-178" rx="39.79" ry="18"/>
<text text-anchor="middle" x="868.76" y="-174.3" font-family="Times,serif" font-size="14.00">popug</text>
</g>
<!-- auth_popug&#45;&gt;analytics_popug -->
<g id="edge24" class="edge">
<title>auth_popug&#45;&gt;analytics_popug</title>
<path fill="none" stroke="black" stroke-dasharray="5,2" d="M495.27,-481.94C504.36,-478.04 514.22,-473.29 522.76,-468 656.25,-385.31 793.02,-254.72 845.94,-202.1"/>
<polygon fill="black" stroke="black" points="848.53,-204.46 853.13,-194.92 843.58,-199.51 848.53,-204.46"/>
</g>
<!-- task_role -->
<g id="node4" class="node">
<title>task_role</title>
<ellipse fill="none" stroke="black" cx="481.76" cy="-261" rx="28.7" ry="18"/>
<text text-anchor="middle" x="481.76" y="-257.3" font-family="Times,serif" font-size="14.00">role</text>
</g>
<!-- auth_role&#45;&gt;task_role -->
<g id="edge25" class="edge">
<title>auth_role&#45;&gt;task_role</title>
<path fill="none" stroke="black" stroke-dasharray="5,2" d="M460.38,-401.01C464.52,-374.05 472.65,-321.23 477.6,-289.03"/>
<polygon fill="black" stroke="black" points="481.09,-289.39 479.15,-278.97 474.17,-288.32 481.09,-289.39"/>
</g>
<!-- accounting_role -->
<g id="node9" class="node">
<title>accounting_role</title>
<ellipse fill="none" stroke="black" cx="367.76" cy="-336" rx="28.7" ry="18"/>
<text text-anchor="middle" x="367.76" y="-332.3" font-family="Times,serif" font-size="14.00">role</text>
</g>
<!-- auth_role&#45;&gt;accounting_role -->
<g id="edge26" class="edge">
<title>auth_role&#45;&gt;accounting_role</title>
<path fill="none" stroke="black" stroke-dasharray="5,2" d="M438.27,-405.77C429.51,-399.92 419.26,-392.55 410.76,-385 402.35,-377.53 393.92,-368.53 386.78,-360.35"/>
<polygon fill="black" stroke="black" points="389.26,-357.87 380.11,-352.53 383.94,-362.41 389.26,-357.87"/>
</g>
<!-- analytics_role -->
<g id="node20" class="node">
<title>analytics_role</title>
<ellipse fill="none" stroke="black" cx="1040.76" cy="-106" rx="28.7" ry="18"/>
<text text-anchor="middle" x="1040.76" y="-102.3" font-family="Times,serif" font-size="14.00">role</text>
</g>
<!-- auth_role&#45;&gt;analytics_role -->
<g id="edge27" class="edge">
<title>auth_role&#45;&gt;analytics_role</title>
<path fill="none" stroke="black" stroke-dasharray="5,2" d="M447.67,-402.15C444.86,-396.9 442.19,-390.89 440.76,-385 428.56,-334.68 405.07,-189.51 440.76,-152 483.94,-106.63 942.93,-138.9 1003.76,-124 1005.94,-123.47 1008.14,-122.81 1010.33,-122.06"/>
<polygon fill="black" stroke="black" points="1011.74,-125.26 1019.74,-118.32 1009.15,-118.76 1011.74,-125.26"/>
</g>
<!-- task_popug&#45;&gt;task_role -->
<g id="edge2" class="edge">
<title>task_popug&#45;&gt;task_role</title>
<path fill="none" stroke="black" d="M519.64,-318.44C513.29,-308.97 505.2,-296.93 498.14,-286.4"/>
<polygon fill="black" stroke="black" points="500.98,-284.35 492.5,-278 495.17,-288.25 500.98,-284.35"/>
</g>
<!-- task_task -->
<g id="node6" class="node">
<title>task_task</title>
<ellipse fill="none" stroke="black" cx="558.76" cy="-261" rx="30.59" ry="18"/>
<text text-anchor="middle" x="558.76" y="-257.3" font-family="Times,serif" font-size="14.00">task</text>
</g>
<!-- task_popug&#45;&gt;task_task -->
<g id="edge3" class="edge">
<title>task_popug&#45;&gt;task_task</title>
<path fill="none" stroke="black" d="M537.26,-318.07C540.65,-309.22 544.88,-298.2 548.68,-288.28"/>
<polygon fill="black" stroke="black" points="551.99,-289.43 552.3,-278.84 545.45,-286.92 551.99,-289.43"/>
</g>
<!-- task_status -->
<g id="node7" class="node">
<title>task_status</title>
<ellipse fill="none" stroke="black" cx="520.76" cy="-178" rx="39.79" ry="18"/>
<text text-anchor="middle" x="520.76" y="-174.3" font-family="Times,serif" font-size="14.00">status</text>
</g>
<!-- task_task&#45;&gt;task_status -->
<g id="edge4" class="edge">
<title>task_task&#45;&gt;task_status</title>
<path fill="none" stroke="black" d="M550.89,-243.22C545.69,-232.14 538.78,-217.41 532.89,-204.85"/>
<polygon fill="black" stroke="black" points="536.04,-203.33 528.62,-195.76 529.7,-206.3 536.04,-203.33"/>
</g>
<!-- accounting_task -->
<g id="node13" class="node">
<title>accounting_task</title>
<ellipse fill="none" stroke="black" cx="319.76" cy="-178" rx="30.59" ry="18"/>
<text text-anchor="middle" x="319.76" y="-174.3" font-family="Times,serif" font-size="14.00">task</text>
</g>
<!-- task_task&#45;&gt;accounting_task -->
<g id="edge28" class="edge">
<title>task_task&#45;&gt;accounting_task</title>
<path fill="none" stroke="black" stroke-dasharray="5,2" d="M541.04,-246.15C534.66,-241.87 527.2,-237.59 519.76,-235 486.44,-223.38 475.05,-235.36 440.76,-227 409.5,-219.37 375.58,-205.38 351.63,-194.47"/>
<polygon fill="black" stroke="black" points="352.88,-191.19 342.34,-190.15 349.94,-197.54 352.88,-191.19"/>
</g>
<!-- analytics_task -->
<g id="node22" class="node">
<title>analytics_task</title>
<ellipse fill="none" stroke="black" cx="963.76" cy="-106" rx="30.59" ry="18"/>
<text text-anchor="middle" x="963.76" y="-102.3" font-family="Times,serif" font-size="14.00">task</text>
</g>
<!-- task_task&#45;&gt;analytics_task -->
<g id="edge29" class="edge">
<title>task_task&#45;&gt;analytics_task</title>
<path fill="none" stroke="black" stroke-dasharray="5,2" d="M582.11,-249.11C627.29,-228.32 730.12,-182.35 819.76,-152 865.51,-136.51 879.16,-139.92 924.76,-124 926.86,-123.27 929,-122.47 931.15,-121.64"/>
<polygon fill="black" stroke="black" points="932.55,-124.85 940.48,-117.83 929.9,-118.37 932.55,-124.85"/>
</g>
<!-- accounting_status -->
<g id="node14" class="node">
<title>accounting_status</title>
<ellipse fill="none" stroke="black" cx="358.76" cy="-106" rx="39.79" ry="18"/>
<text text-anchor="middle" x="358.76" y="-102.3" font-family="Times,serif" font-size="14.00">status</text>
</g>
<!-- task_status&#45;&gt;accounting_status -->
<g id="edge30" class="edge">
<title>task_status&#45;&gt;accounting_status</title>
<path fill="none" stroke="black" stroke-dasharray="5,2" d="M492.91,-164.97C466.17,-153.41 425.6,-135.88 396.07,-123.12"/>
<polygon fill="black" stroke="black" points="397.09,-119.75 386.52,-118.99 394.31,-126.17 397.09,-119.75"/>
</g>
<!-- accounting_popug&#45;&gt;accounting_role -->
<g id="edge5" class="edge">
<title>accounting_popug&#45;&gt;accounting_role</title>
<path fill="none" stroke="black" d="M360.67,-400.82C361.85,-390.19 363.39,-376.31 364.74,-364.2"/>
<polygon fill="black" stroke="black" points="368.23,-364.48 365.86,-354.15 361.27,-363.71 368.23,-364.48"/>
</g>
<!-- accounting_account -->
<g id="node11" class="node">
<title>accounting_account</title>
<ellipse fill="none" stroke="black" cx="253.76" cy="-336" rx="46.59" ry="18"/>
<text text-anchor="middle" x="253.76" y="-332.3" font-family="Times,serif" font-size="14.00">account</text>
</g>
<!-- accounting_popug&#45;&gt;accounting_account -->
<g id="edge6" class="edge">
<title>accounting_popug&#45;&gt;accounting_account</title>
<path fill="none" stroke="black" d="M338.97,-403.31C331.37,-397.63 322.64,-391.05 314.76,-385 303.72,-376.51 291.64,-367.05 281.18,-358.79"/>
<polygon fill="black" stroke="black" points="283.19,-355.92 273.18,-352.46 278.85,-361.41 283.19,-355.92"/>
</g>
<!-- accounting_popug&#45;&gt;accounting_task -->
<g id="edge10" class="edge">
<title>accounting_popug&#45;&gt;accounting_task</title>
<path fill="none" stroke="black" d="M341.55,-402.73C336.88,-397.6 332.39,-391.5 329.76,-385 305.4,-324.83 310.53,-246.57 315.6,-206.01"/>
<polygon fill="black" stroke="black" points="319.07,-206.46 316.93,-196.09 312.13,-205.53 319.07,-206.46"/>
</g>
<!-- accounting_account&#45;&gt;accounting_date -->
<g id="edge7" class="edge">
<title>accounting_account&#45;&gt;accounting_date</title>
<path fill="none" stroke="black" d="M227.47,-321.04C223.64,-317.9 220.18,-314.23 217.76,-310 199.45,-278.02 200.27,-234.23 203.36,-206.28"/>
<polygon fill="black" stroke="black" points="206.88,-206.41 204.68,-196.04 199.93,-205.52 206.88,-206.41"/>
</g>
<!-- accounting_audit -->
<g id="node12" class="node">
<title>accounting_audit</title>
<ellipse fill="none" stroke="black" cx="260.76" cy="-261" rx="34.39" ry="18"/>
<text text-anchor="middle" x="260.76" y="-257.3" font-family="Times,serif" font-size="14.00">audit</text>
</g>
<!-- accounting_account&#45;&gt;accounting_audit -->
<g id="edge8" class="edge">
<title>accounting_account&#45;&gt;accounting_audit</title>
<path fill="none" stroke="black" d="M255.42,-317.7C256.23,-309.25 257.23,-298.87 258.14,-289.37"/>
<polygon fill="black" stroke="black" points="261.64,-289.46 259.11,-279.18 254.68,-288.8 261.64,-289.46"/>
</g>
<!-- analytics_account -->
<g id="node18" class="node">
<title>analytics_account</title>
<ellipse fill="none" stroke="black" cx="868.76" cy="-106" rx="46.59" ry="18"/>
<text text-anchor="middle" x="868.76" y="-102.3" font-family="Times,serif" font-size="14.00">account</text>
</g>
<!-- accounting_account&#45;&gt;analytics_account -->
<g id="edge32" class="edge">
<title>accounting_account&#45;&gt;analytics_account</title>
<path fill="none" stroke="black" stroke-dasharray="5,2" d="M284.93,-322.51C291.55,-319.04 298.21,-314.86 303.76,-310 304.76,-309.13 409.61,-152.66 410.76,-152 488.36,-107.31 724.69,-140.22 812.76,-124 816.86,-123.24 821.09,-122.29 825.3,-121.23"/>
<polygon fill="black" stroke="black" points="826.28,-124.59 835.01,-118.58 824.44,-117.84 826.28,-124.59"/>
</g>
<!-- accounting_audit&#45;&gt;accounting_date -->
<g id="edge9" class="edge">
<title>accounting_audit&#45;&gt;accounting_date</title>
<path fill="none" stroke="black" d="M250.04,-243.61C242.52,-232.12 232.33,-216.55 223.84,-203.58"/>
<polygon fill="black" stroke="black" points="226.69,-201.54 218.29,-195.09 220.84,-205.38 226.69,-201.54"/>
</g>
<!-- accounting_audit&#45;&gt;accounting_task -->
<g id="edge12" class="edge">
<title>accounting_audit&#45;&gt;accounting_task</title>
<path fill="none" stroke="black" d="M272.42,-244C280.96,-232.27 292.69,-216.16 302.34,-202.91"/>
<polygon fill="black" stroke="black" points="305.27,-204.84 308.33,-194.69 299.61,-200.72 305.27,-204.84"/>
</g>
<!-- accounting_task&#45;&gt;accounting_status -->
<g id="edge11" class="edge">
<title>accounting_task&#45;&gt;accounting_status</title>
<path fill="none" stroke="black" d="M328.81,-160.76C333.46,-152.4 339.25,-142.02 344.5,-132.61"/>
<polygon fill="black" stroke="black" points="347.68,-134.07 349.49,-123.63 341.57,-130.67 347.68,-134.07"/>
</g>
<!-- accounting_price -->
<g id="node15" class="node">
<title>accounting_price</title>
<ellipse fill="none" stroke="black" cx="266.76" cy="-106" rx="34.39" ry="18"/>
<text text-anchor="middle" x="266.76" y="-102.3" font-family="Times,serif" font-size="14.00">price</text>
</g>
<!-- accounting_task&#45;&gt;accounting_price -->
<g id="edge13" class="edge">
<title>accounting_task&#45;&gt;accounting_price</title>
<path fill="none" stroke="black" d="M307.73,-161.12C301.12,-152.38 292.77,-141.35 285.34,-131.54"/>
<polygon fill="black" stroke="black" points="287.93,-129.17 279.11,-123.31 282.35,-133.39 287.93,-129.17"/>
</g>
<!-- analytics_price -->
<g id="node21" class="node">
<title>analytics_price</title>
<ellipse fill="none" stroke="black" cx="920.76" cy="-34" rx="34.39" ry="18"/>
<text text-anchor="middle" x="920.76" y="-30.3" font-family="Times,serif" font-size="14.00">price</text>
</g>
<!-- accounting_price&#45;&gt;analytics_price -->
<g id="edge31" class="edge">
<title>accounting_price&#45;&gt;analytics_price</title>
<path fill="none" stroke="black" stroke-dasharray="5,2" d="M286.42,-90.97C293.46,-86.67 301.66,-82.44 309.76,-80 412.5,-49.08 684.95,-62.13 791.76,-52 820.72,-49.25 853.18,-44.97 878.3,-41.39"/>
<polygon fill="black" stroke="black" points="878.83,-44.85 888.23,-39.96 877.83,-37.92 878.83,-44.85"/>
</g>
<!-- accounting_corporate_account -->
<g id="node16" class="node">
<title>accounting_corporate_account</title>
<ellipse fill="none" stroke="black" cx="205.76" cy="-419" rx="94.78" ry="18"/>
<text text-anchor="middle" x="205.76" y="-415.3" font-family="Times,serif" font-size="14.00">corporate account</text>
</g>
<!-- analytics_corporate_account -->
<g id="node23" class="node">
<title>analytics_corporate_account</title>
<ellipse fill="none" stroke="black" cx="708.76" cy="-106" rx="94.78" ry="18"/>
<text text-anchor="middle" x="708.76" y="-102.3" font-family="Times,serif" font-size="14.00">corporate account</text>
</g>
<!-- accounting_corporate_account&#45;&gt;analytics_corporate_account -->
<g id="edge33" class="edge">
<title>accounting_corporate_account&#45;&gt;analytics_corporate_account</title>
<path fill="none" stroke="black" stroke-dasharray="5,2" d="M151.15,-404.08C105.2,-389.17 42.38,-360.51 12.76,-310 -4.1,-281.25 -4.36,-263.6 12.76,-235 52.91,-167.96 92.82,-174.14 167.76,-152 208.89,-139.85 464.99,-122.23 609.61,-113.06"/>
<polygon fill="black" stroke="black" points="610.06,-116.54 619.82,-112.41 609.62,-109.55 610.06,-116.54"/>
</g>
<!-- analytics_popug&#45;&gt;analytics_account -->
<g id="edge14" class="edge">
<title>analytics_popug&#45;&gt;analytics_account</title>
<path fill="none" stroke="black" d="M868.76,-159.7C868.76,-151.98 868.76,-142.71 868.76,-134.11"/>
<polygon fill="black" stroke="black" points="872.26,-134.1 868.76,-124.1 865.26,-134.1 872.26,-134.1"/>
</g>
<!-- analytics_popug&#45;&gt;analytics_role -->
<g id="edge16" class="edge">
<title>analytics_popug&#45;&gt;analytics_role</title>
<path fill="none" stroke="black" d="M898.45,-165.9C925.94,-155.49 967.85,-139.28 1003.76,-124 1005.57,-123.23 1007.41,-122.43 1009.28,-121.61"/>
<polygon fill="black" stroke="black" points="1010.86,-124.74 1018.55,-117.45 1007.99,-118.35 1010.86,-124.74"/>
</g>
<!-- analytics_account&#45;&gt;analytics_date -->
<g id="edge15" class="edge">
<title>analytics_account&#45;&gt;analytics_date</title>
<path fill="none" stroke="black" d="M844.52,-90.5C826.26,-79.57 801.13,-64.53 781.63,-52.87"/>
<polygon fill="black" stroke="black" points="783.21,-49.74 772.83,-47.61 779.62,-55.75 783.21,-49.74"/>
</g>
<!-- analytics_task&#45;&gt;analytics_date -->
<g id="edge18" class="edge">
<title>analytics_task&#45;&gt;analytics_date</title>
<path fill="none" stroke="black" d="M945.39,-91.54C939.09,-87.38 931.84,-83.09 924.76,-80 881.03,-60.87 827.39,-48.49 791.54,-41.64"/>
<polygon fill="black" stroke="black" points="791.94,-38.16 781.47,-39.78 790.67,-45.04 791.94,-38.16"/>
</g>
<!-- analytics_task&#45;&gt;analytics_price -->
<g id="edge17" class="edge">
<title>analytics_task&#45;&gt;analytics_price</title>
<path fill="none" stroke="black" d="M953.79,-88.76C948.6,-80.32 942.14,-69.8 936.31,-60.31"/>
<polygon fill="black" stroke="black" points="939.2,-58.32 930.98,-51.63 933.23,-61.99 939.2,-58.32"/>
</g>
<!-- analytics_corporate_account&#45;&gt;analytics_date -->
<g id="edge19" class="edge">
<title>analytics_corporate_account&#45;&gt;analytics_date</title>
<path fill="none" stroke="black" d="M719.17,-88.05C724.37,-79.59 730.76,-69.19 736.5,-59.84"/>
<polygon fill="black" stroke="black" points="739.49,-61.66 741.74,-51.31 733.53,-58 739.49,-61.66"/>
</g>
</g>
</svg>
